<svg xmlns="http://www.w3.org/2000/svg" width="48pt" height="48pt" viewBox="0 0 512 512" version="1.1"><path d="M 149 181.773 C 149 182.272, 147.272 183.250, 145.160 183.947 C 139.221 185.907, 120.057 196.788, 109.842 204 C 104.778 207.575, 97.180 213.750, 92.957 217.723 C 88.734 221.695, 84.919 224.620, 84.479 224.223 C 84.039 223.825, 84.003 224.063, 84.399 224.750 C 84.794 225.438, 84.641 226, 84.059 226 C 83.477 226, 83 226.637, 83 227.417 C 83 228.196, 82.604 228.983, 82.121 229.167 C 81.205 229.514, 72.558 246.275, 70.923 250.871 L 69.988 253.500 72.171 250.621 C 75.373 246.400, 88.396 236.334, 94.913 233.044 C 145.333 207.592, 204.838 241.880, 207.722 298.046 C 208.461 312.423, 206.406 322.416, 200.022 335.500 C 194.387 347.050, 186.808 356.578, 178.149 363 C 174.811 365.475, 172.062 367.767, 172.040 368.092 C 172.018 368.418, 176.162 369.920, 181.250 371.429 C 186.338 372.938, 191.059 374.344, 191.741 374.552 C 192.424 374.760, 194.627 372.359, 196.635 369.215 C 201.650 361.368, 213.178 349.697, 221 344.546 C 228.627 339.524, 238.655 335.369, 246.158 334.122 L 251.500 333.234 244.500 333.100 C 233.039 332.880, 219.121 331.114, 215.958 329.478 C 214.195 328.567, 213 327.150, 213 325.973 C 213 320.881, 228.548 310.797, 241.460 307.515 C 249.098 305.573, 262.902 305.573, 270.540 307.515 C 283.452 310.797, 299 320.881, 299 325.973 C 299 327.150, 297.805 328.567, 296.042 329.478 C 292.879 331.114, 278.961 332.880, 267.500 333.100 L 260.500 333.234 265.842 334.122 C 273.345 335.369, 283.373 339.524, 291 344.546 C 298.822 349.697, 310.350 361.368, 315.365 369.215 C 317.373 372.359, 319.576 374.760, 320.259 374.552 C 320.941 374.344, 325.663 372.938, 330.750 371.429 C 335.838 369.920, 339.982 368.418, 339.960 368.092 C 339.938 367.767, 337.189 365.475, 333.851 363 C 320.613 353.183, 308.810 334.108, 305.417 317.046 C 299.827 288.933, 310.970 259.104, 333.827 240.995 C 341.626 234.816, 354.207 228.629, 363.500 226.402 C 373.033 224.118, 390.335 224.148, 399.500 226.466 C 413.829 230.088, 430.359 239.770, 438.575 249.351 C 441.465 252.722, 441.946 253.007, 441.137 250.871 C 439.237 245.852, 430.754 229.498, 429.879 229.167 C 429.396 228.983, 429 228.196, 429 227.417 C 429 226.637, 428.523 226, 427.941 226 C 427.359 226, 427.203 225.480, 427.595 224.845 C 427.995 224.199, 427.874 223.960, 427.320 224.302 C 426.776 224.638, 424.344 222.864, 421.916 220.359 C 411.441 209.556, 394.355 197.724, 374.692 187.657 C 363.231 181.789, 361.657 181.240, 358.738 182.099 C 353.563 183.622, 328.750 187.847, 315.118 189.528 C 308.231 190.377, 302.538 191.168, 302.467 191.286 C 302.397 191.404, 301.761 194.200, 301.054 197.500 C 297.727 213.024, 289.596 235.321, 282.786 247.596 C 260.685 287.431, 234.398 274.302, 215.519 214 C 213.711 208.225, 211.654 200.800, 210.946 197.500 C 210.239 194.200, 209.604 191.405, 209.535 191.288 C 209.466 191.172, 203.952 190.401, 197.281 189.575 C 178.424 187.240, 159.432 183.893, 150.750 181.373 C 149.787 181.094, 149 181.274, 149 181.773 M 114.946 185.750 L 111.500 189.500 115.250 186.054 C 117.313 184.158, 119 182.471, 119 182.304 C 119 181.540, 118.154 182.260, 114.946 185.750 M 393 182.313 C 393 182.485, 394.462 183.948, 396.250 185.563 L 399.500 188.500 396.563 185.250 C 393.825 182.221, 393 181.540, 393 182.313 M 241.360 357.407 C 231.584 359.276, 227.752 360.601, 218.818 365.199 C 212.050 368.682, 210.638 369.916, 206.954 375.571 C 201.996 383.181, 198.622 391.194, 196.471 400.468 L 194.903 407.232 200.715 414.310 C 203.912 418.203, 206.966 421.188, 207.502 420.944 C 208.038 420.700, 209.164 418.469, 210.004 415.987 C 213.954 404.319, 224.969 391.366, 235.765 385.693 C 249.395 378.530, 262.605 378.530, 276.235 385.693 C 287.031 391.366, 298.046 404.319, 301.996 415.987 C 302.836 418.469, 303.941 420.725, 304.452 421 C 304.963 421.275, 308.017 418.290, 311.239 414.366 L 317.097 407.232 315.529 400.468 C 313.378 391.194, 310.004 383.181, 305.046 375.571 C 301.351 369.900, 299.945 368.674, 292.969 365.045 C 288.626 362.785, 281.569 360.027, 277.287 358.915 C 267.225 356.302, 250.759 355.611, 241.360 357.407 M 249.500 397.564 C 242.149 399.239, 236.401 400.350, 235.816 400.209 C 235.439 400.118, 233.286 402.140, 231.032 404.701 C 225.788 410.659, 220.226 422.072, 219.427 428.515 C 218.810 433.489, 218.846 433.572, 223.812 438.617 C 232.965 447.916, 242.973 452, 256.605 452 C 269.746 452, 282.205 446.273, 290.221 436.548 C 292.935 433.256, 293.124 432.535, 292.487 427.905 C 291.604 421.487, 286.209 410.655, 280.880 404.601 C 278.610 402.023, 276.560 400.106, 276.324 400.343 C 276.088 400.579, 273.842 400.155, 271.335 399.400 C 266.502 397.946, 252.859 396.798, 249.500 397.564 M 249.306 420.415 C 247.763 421.743, 246.869 423.200, 247.320 423.652 C 247.771 424.104, 251.677 424.474, 256 424.474 C 260.323 424.474, 264.229 424.104, 264.680 423.652 C 266.288 422.040, 260.084 418, 256 418 C 253.330 418, 251.232 418.757, 249.306 420.415" stroke="none" fill="#83d839" fill-rule="evenodd"/><path d="M 115.908 185.750 C 104.247 197.648, 98.023 205.028, 90.816 215.500 C 82.786 227.167, 82.824 227.253, 92.120 218.500 C 96.794 214.100, 104.764 207.575, 109.833 204 C 120.067 196.782, 139.229 185.904, 145.160 183.947 C 147.272 183.250, 149 182.412, 149 182.085 C 149 181.501, 128.476 175.935, 126.481 175.978 C 125.921 175.990, 121.163 180.387, 115.908 185.750 M 372.540 178.933 L 362.580 181.668 372.227 186.392 C 391.735 195.945, 407.531 206.664, 420.911 219.429 C 429.102 227.243, 429.117 227.034, 421.196 215.500 C 413.881 204.848, 408.560 198.518, 396.607 186.250 C 389.978 179.447, 385.927 176.033, 384.560 176.099 C 383.427 176.153, 378.018 177.428, 372.540 178.933 M 241 307.576 C 228.378 310.891, 213 320.995, 213 325.973 C 213 330.859, 225.955 332.965, 256 332.965 C 286.045 332.965, 299 330.859, 299 325.973 C 299 320.881, 283.452 310.797, 270.540 307.515 C 263.116 305.628, 248.301 305.659, 241 307.576 M 243.034 347.601 C 235.001 349.759, 225.680 355.365, 218.146 362.569 L 211.500 368.923 219.178 364.939 C 231.272 358.663, 240.064 356.695, 256 356.695 C 271.936 356.695, 280.728 358.663, 292.822 364.939 L 300.500 368.923 293.854 362.569 C 278.913 348.283, 260.583 342.884, 243.034 347.601 M 245.500 395.063 C 242.750 396.140, 239.375 397.900, 238 398.974 L 235.500 400.926 240.500 399.335 C 243.757 398.299, 249.161 397.744, 256 397.744 C 262.839 397.744, 268.243 398.299, 271.500 399.335 L 276.500 400.926 274 398.975 C 266.657 393.242, 254.432 391.564, 245.500 395.063 M 249.306 420.415 C 247.763 421.743, 246.869 423.200, 247.320 423.652 C 247.771 424.104, 251.677 424.474, 256 424.474 C 260.323 424.474, 264.229 424.104, 264.680 423.652 C 266.288 422.040, 260.084 418, 256 418 C 253.330 418, 251.232 418.757, 249.306 420.415" stroke="none" fill="#a2f255" fill-rule="evenodd"/><path d="M 15.500 34.929 C 4.986 37.466, -0.016 46.513, 0.017 62.932 C 0.054 81.247, 7.583 99.007, 22.813 116.702 C 38.746 135.214, 69.149 154.623, 101.500 166.933 L 112.500 171.119 104.639 179.309 C 74.955 210.240, 56.481 243.882, 48.798 281 C 45.992 294.554, 45.779 316.342, 48.326 329.210 C 57.884 377.505, 94.224 419.283, 148.641 444.540 C 161.745 450.622, 184.825 458.291, 199 461.272 C 207.287 463.015, 211.949 464.585, 215.686 466.892 C 223.470 471.696, 235.968 475.875, 246.554 477.212 C 263.195 479.313, 282.765 475.255, 296.314 466.892 C 300.051 464.585, 304.713 463.015, 313 461.272 C 334.503 456.749, 362.156 446.317, 380.345 435.866 C 429.684 407.517, 459.549 366.305, 465.052 318.974 C 470.162 275.013, 448.214 221.877, 407.361 179.309 L 399.500 171.119 410.500 166.933 C 433.992 157.994, 459.820 143.338, 476.154 129.679 C 492.720 115.825, 506.313 95.367, 510.052 78.660 C 510.760 75.497, 511.712 72.678, 512.169 72.395 C 513.262 71.720, 513.251 52, 512.158 52 C 511.695 52, 510.783 50.220, 510.132 48.045 C 506.544 36.071, 495.723 31.836, 478.932 35.835 C 467.713 38.508, 461.748 40.935, 422.483 58.807 C 385.096 75.824, 369.764 82.122, 349 88.992 C 275.042 113.461, 214.779 110.642, 135.500 79.007 C 128.350 76.154, 107.658 67.064, 89.517 58.807 C 50.597 41.092, 44.316 38.525, 33.589 35.953 C 25.215 33.946, 20.646 33.687, 15.500 34.929 M 16.656 47.133 C 12.042 49.815, 10.507 63.798, 13.539 75.540 C 26.627 126.241, 104.221 167.756, 205.818 178.414 C 216.448 179.529, 221.472 180.531, 225.318 182.302 C 235.227 186.866, 242.622 196.942, 243.696 207.341 C 244.391 214.078, 242.982 217, 239.036 217 C 235.197 217, 233.333 214.946, 232.473 209.770 C 232.083 207.421, 231.090 204.150, 230.268 202.500 C 228.649 199.254, 224.086 194, 222.885 194 C 220.753 194, 231.317 225.657, 237.680 238.335 C 243.654 250.238, 251.422 259, 256 259 C 260.578 259, 268.346 250.238, 274.320 238.335 C 280.683 225.657, 291.247 194, 289.115 194 C 287.914 194, 283.351 199.254, 281.732 202.500 C 280.910 204.150, 279.917 207.421, 279.527 209.770 C 278.667 214.946, 276.803 217, 272.964 217 C 264.486 217, 267.591 198.400, 277.735 188.422 C 284.048 182.212, 290.026 180.109, 306.182 178.413 C 417.853 166.689, 500 117.459, 500 62.258 C 500 48.294, 496.608 44.920, 484.571 46.910 C 475.842 48.353, 467.250 51.794, 427.650 69.711 C 381.628 90.532, 366.378 96.593, 341.500 103.945 C 280.762 121.895, 231.646 121.938, 170.756 104.093 C 146.771 97.064, 129.105 90.002, 82.748 68.909 C 38.274 48.673, 22.785 43.570, 16.656 47.133 M 0.370 63 C 0.370 68.775, 0.535 71.138, 0.737 68.250 C 0.939 65.362, 0.939 60.638, 0.737 57.750 C 0.535 54.862, 0.370 57.225, 0.370 63 M 114.853 185.750 C 94.779 206.238, 80.079 227.709, 70.629 250.342 C 69.058 254.107, 69.184 254.036, 76.873 246.842 C 92.840 231.905, 109.733 225.035, 130.500 225.035 C 160.509 225.035, 186.069 241.163, 199.950 268.856 C 209.269 287.448, 209.803 313.050, 201.276 332.442 C 193.335 350.504, 179.873 364.147, 161.840 372.410 C 134.237 385.059, 100.424 379.413, 78.119 358.430 C 73.699 354.272, 69.113 349.301, 67.927 347.383 C 61.546 337.057, 67.703 352.916, 74.996 365.591 C 90.635 392.769, 115.745 414.998, 149.392 431.453 C 160.606 436.937, 182.833 445.201, 192.330 447.418 L 195.160 448.078 192.514 443.789 C 188.389 437.101, 186.351 431.965, 184.470 423.511 C 176.788 388.982, 206.318 343.974, 242.206 335.513 C 272.397 328.396, 304.363 346.355, 320.499 379.500 C 331.879 402.876, 331.542 424.245, 319.486 443.789 L 316.840 448.078 319.670 447.418 C 329.167 445.201, 351.394 436.937, 362.608 431.453 C 396.255 414.998, 421.365 392.769, 437.004 365.591 C 444.297 352.916, 450.454 337.057, 444.073 347.383 C 442.887 349.301, 438.301 354.272, 433.881 358.430 C 419.769 371.706, 401.296 379, 381.787 379 C 369.910 379, 360.063 376.948, 350.160 372.410 C 332.127 364.147, 318.665 350.504, 310.724 332.442 C 302.197 313.050, 302.731 287.448, 312.050 268.856 C 325.931 241.163, 351.491 225.035, 381.500 225.035 C 402.267 225.035, 419.160 231.905, 435.127 246.842 C 442.816 254.036, 442.942 254.107, 441.371 250.342 C 435.189 235.538, 424.877 218.318, 413.719 204.169 C 407.260 195.978, 389.602 177.428, 386.831 175.923 C 385.700 175.308, 380.744 176.149, 371.447 178.532 C 354.756 182.809, 335.186 186.464, 316.518 188.788 L 302.536 190.529 299.332 202.441 C 294.727 219.560, 290.557 231.051, 284.685 242.801 C 272.803 266.576, 260.293 274.639, 246.737 267.260 C 234.271 260.475, 221.997 237.123, 212.668 202.441 L 209.464 190.529 195.482 188.788 C 176.803 186.462, 157.242 182.809, 140.521 178.523 C 132.960 176.586, 126.461 175, 126.079 175 C 125.697 175, 120.645 179.838, 114.853 185.750 M 119.075 237.021 C 105.927 239.798, 95.049 245.283, 85.914 253.740 C 71.811 266.797, 64.799 282.824, 64.799 302 C 64.799 320.725, 70.619 334.700, 83.964 348.018 C 93.097 357.132, 99.666 361.221, 111.500 365.160 C 117.203 367.058, 120.631 367.490, 130 367.492 C 149.443 367.496, 163.603 361.653, 177.011 348.095 C 217.106 307.549, 189.956 238.678, 133 236.457 C 127.775 236.253, 121.509 236.507, 119.075 237.021 M 370.069 237.022 C 344.105 242.504, 324.269 260.989, 317.986 285.556 C 312.210 308.137, 318.556 331.477, 334.989 348.095 C 348.397 361.653, 362.557 367.496, 382 367.492 C 391.369 367.490, 394.797 367.058, 400.500 365.160 C 412.334 361.221, 418.903 357.132, 428.036 348.018 C 441.381 334.700, 447.201 320.725, 447.201 302 C 447.201 266.271, 419.836 237.895, 384 236.465 C 378.775 236.257, 372.506 236.507, 370.069 237.022 M 118.754 256.084 C 106.912 258.876, 93.781 269.571, 88.166 281 C 83.583 290.327, 82.329 298.179, 83.801 308.332 C 89.485 347.522, 136.862 362.884, 164.461 334.487 C 182.225 316.209, 181.757 286.597, 163.420 268.550 C 157.167 262.397, 151.641 259.155, 143.068 256.612 C 137.236 254.881, 124.984 254.615, 118.754 256.084 M 369 256.433 C 351.933 261.190, 339.141 275.215, 335.368 293.309 C 332.316 307.950, 336.934 323.575, 347.539 334.487 C 366.307 353.797, 396.492 353.995, 415.147 334.931 C 444.478 304.955, 422.983 254.594, 381.068 255.089 C 376.906 255.139, 371.475 255.743, 369 256.433 M 104.388 278.581 C 98.048 281.709, 96.520 290.802, 101.466 295.964 C 110.298 305.183, 124.979 295.187, 119.516 283.674 C 117.842 280.148, 112.997 276.978, 109.349 277.023 C 108.332 277.035, 106.100 277.736, 104.388 278.581 M 354.898 279.285 C 346.738 284.771, 348.549 296.287, 358.019 299.124 C 364.771 301.147, 372 295.654, 372 288.500 C 372 284.350, 369.156 279.963, 365.466 278.421 C 360.794 276.469, 358.849 276.628, 354.898 279.285 M 118.686 311.702 C 117.688 311.960, 112.373 312.941, 106.875 313.881 L 96.879 315.590 100.971 321.719 C 113.777 340.895, 140.549 343.058, 156.254 326.185 C 160.688 321.421, 163.863 316.408, 162.912 315.672 C 162.686 315.497, 157.026 314.374, 150.337 313.177 C 139.199 311.184, 123.511 310.453, 118.686 311.702 M 360.500 313.229 C 354.450 314.383, 349.375 315.417, 349.222 315.525 C 348.255 316.212, 351.689 321.826, 355.736 326.174 C 371.494 343.105, 398.200 340.930, 411.062 321.670 L 415.129 315.580 405.314 313.746 C 390.073 310.899, 373.702 310.710, 360.500 313.229 M 245.912 345.988 C 222.999 351.822, 203.732 371.728, 196.902 396.625 C 194.373 405.843, 194.619 419.410, 197.462 427.500 C 199.143 432.286, 207.826 446.508, 208.596 445.738 C 208.799 445.534, 208.523 443.825, 207.983 441.940 C 204.915 431.244, 209.533 413.031, 218.180 401.720 C 223.368 394.934, 231.780 388.002, 238.946 384.606 C 244.984 381.745, 246.327 381.500, 256 381.500 C 265.673 381.500, 267.016 381.745, 273.054 384.606 C 280.220 388.002, 288.632 394.934, 293.820 401.720 C 302.467 413.031, 307.085 431.244, 304.017 441.940 C 303.477 443.825, 303.201 445.534, 303.404 445.738 C 304.174 446.508, 312.857 432.286, 314.538 427.500 C 317.381 419.410, 317.627 405.843, 315.098 396.625 C 309.054 374.593, 292.731 355.757, 273.260 348.345 C 265.820 345.512, 252.341 344.351, 245.912 345.988 M 246.228 393.908 C 236.668 397.460, 227.702 406.190, 222.638 416.877 C 219.844 422.775, 219.500 424.486, 219.500 432.500 C 219.500 440.090, 219.886 442.255, 221.961 446.317 C 226.784 455.759, 237.301 462.949, 249.361 465.049 C 265.571 467.872, 283.168 459.769, 290.039 446.317 C 292.118 442.249, 292.500 440.093, 292.500 432.448 C 292.500 424.003, 292.249 422.888, 288.747 415.803 C 284.429 407.065, 275.561 398.048, 268.072 394.782 C 261.371 391.860, 252.678 391.511, 246.228 393.908" stroke="none" fill="#33363a" fill-rule="evenodd"/><path d="M 103.367 279.772 C 97.886 284.212, 97.490 290.690, 102.400 295.600 C 109.355 302.555, 119.925 298.182, 119.978 288.327 C 119.996 284.984, 119.388 283.542, 116.923 281.077 C 114.458 278.612, 113.016 278.004, 109.673 278.022 C 107.238 278.035, 104.612 278.764, 103.367 279.772 M 353.766 280.918 C 350.962 283.423, 350.500 284.496, 350.500 288.500 C 350.500 292.504, 350.962 293.577, 353.766 296.082 C 361.875 303.328, 373.641 295.899, 370.824 285.313 C 368.853 277.908, 359.757 275.564, 353.766 280.918" stroke="none" fill="#ffffff" fill-rule="evenodd"/><path d="M 487.762 46.707 C 489.006 46.946, 490.806 46.937, 491.762 46.687 C 492.718 46.437, 491.700 46.241, 489.500 46.252 C 487.300 46.263, 486.518 46.468, 487.762 46.707 M 243.264 117.718 C 244.784 117.947, 247.034 117.941, 248.264 117.704 C 249.494 117.467, 248.250 117.279, 245.500 117.286 C 242.750 117.294, 241.744 117.488, 243.264 117.718 M 264.264 117.718 C 265.784 117.947, 268.034 117.941, 269.264 117.704 C 270.494 117.467, 269.250 117.279, 266.500 117.286 C 263.750 117.294, 262.744 117.488, 264.264 117.718 M 124.250 236.689 C 125.213 236.941, 126.787 236.941, 127.750 236.689 C 128.713 236.438, 127.925 236.232, 126 236.232 C 124.075 236.232, 123.287 236.438, 124.250 236.689 M 132.762 236.707 C 134.006 236.946, 135.806 236.937, 136.762 236.687 C 137.718 236.437, 136.700 236.241, 134.500 236.252 C 132.300 236.263, 131.518 236.468, 132.762 236.707 M 375.762 236.707 C 377.006 236.946, 378.806 236.937, 379.762 236.687 C 380.718 236.437, 379.700 236.241, 377.500 236.252 C 375.300 236.263, 374.518 236.468, 375.762 236.707 M 384.250 236.689 C 385.212 236.941, 386.788 236.941, 387.750 236.689 C 388.712 236.438, 387.925 236.232, 386 236.232 C 384.075 236.232, 383.288 236.438, 384.250 236.689 M 127.762 254.707 C 129.006 254.946, 130.806 254.937, 131.762 254.687 C 132.718 254.437, 131.700 254.241, 129.500 254.252 C 127.300 254.263, 126.518 254.468, 127.762 254.707 M 378.762 254.707 C 380.006 254.946, 381.806 254.937, 382.762 254.687 C 383.718 254.437, 382.700 254.241, 380.500 254.252 C 378.300 254.263, 377.518 254.468, 378.762 254.707 M 118.686 311.702 C 117.688 311.960, 112.373 312.941, 106.875 313.881 L 96.879 315.590 100.971 321.719 C 113.777 340.895, 140.549 343.058, 156.254 326.185 C 160.688 321.421, 163.863 316.408, 162.912 315.672 C 162.686 315.497, 157.026 314.374, 150.337 313.177 C 139.199 311.184, 123.511 310.453, 118.686 311.702 M 360.500 313.229 C 354.450 314.383, 349.375 315.417, 349.222 315.525 C 348.255 316.212, 351.689 321.826, 355.736 326.174 C 371.494 343.105, 398.200 340.930, 411.062 321.670 L 415.129 315.580 405.314 313.746 C 390.073 310.899, 373.702 310.710, 360.500 313.229" stroke="none" fill="#6d5c4d" fill-rule="evenodd"/><path d="M 114.638 238.521 C 84.643 246.110, 63.581 274.729, 65.308 305.549 C 66.395 324.926, 75.542 342.473, 90.368 353.617 C 103.021 363.129, 114.733 367.049, 130.500 367.049 C 148.467 367.049, 162.165 361.537, 175.370 348.994 C 183.733 341.050, 189.040 332.607, 192.654 321.500 C 196.260 310.416, 196.454 294.921, 193.124 284 C 186.796 263.247, 171.384 247.369, 150.275 239.854 C 142.561 237.107, 123.103 236.380, 114.638 238.521 M 370 237.633 C 357.697 239.976, 345.407 246.593, 335.905 255.989 C 322.427 269.317, 316.534 283.566, 316.666 302.500 C 316.729 311.479, 317.221 314.974, 319.343 321.521 C 328.372 349.382, 352.492 367.049, 381.500 367.049 C 410.565 367.049, 434.315 350.007, 443.519 322.549 C 452.077 297.018, 443.598 268.300, 422.500 251.357 C 410.128 241.421, 400.130 237.804, 384 237.426 C 377.675 237.278, 371.375 237.372, 370 237.633 M 119.335 255.423 C 100.811 259.915, 85.651 276.568, 83.080 295.248 C 78.762 326.625, 106.143 353.818, 137.246 349.041 C 155.462 346.244, 171.263 332.534, 176.402 315.068 C 178.447 308.116, 178.450 295.896, 176.407 288.932 C 169.294 264.686, 143.525 249.556, 119.335 255.423 M 370.112 255.513 C 348.376 261.630, 334 280.136, 334 302 C 334 315.633, 339.051 327.029, 349.455 336.869 C 363.606 350.252, 384.341 353.317, 402.390 344.691 C 431.644 330.711, 438.472 291.516, 415.633 268.676 C 406.518 259.561, 396.668 255.201, 383.500 254.452 C 378.119 254.146, 373.736 254.494, 370.112 255.513" stroke="none" fill="#ffb000" fill-rule="evenodd"/><path d="M 15.573 81.208 C 30.651 123.941, 93.921 160.115, 178.736 174.491 C 183.815 175.352, 195.437 176.908, 204.562 177.948 C 217.881 179.467, 222.206 180.355, 226.487 182.450 C 235.853 187.032, 243.014 197.382, 244.377 208.307 C 244.902 212.510, 244.670 213.420, 242.534 215.557 C 241.190 216.901, 239.445 218, 238.656 218 C 235.618 218, 232.997 214.477, 231.985 209.031 C 230.953 203.477, 227.055 196.619, 224.336 195.576 C 222.385 194.827, 222.996 197.717, 228.131 213.500 C 236.526 239.303, 248.236 258, 256 258 C 263.764 258, 275.474 239.303, 283.869 213.500 C 289.004 197.717, 289.615 194.827, 287.664 195.576 C 284.945 196.619, 281.047 203.477, 280.015 209.031 C 279.022 214.374, 276.388 218, 273.500 218 C 272.797 218, 271.172 217.150, 269.888 216.111 C 265.036 212.182, 268.507 197.979, 276.475 189.160 C 282.780 182.180, 288.504 180.108, 307.438 177.948 C 355.631 172.453, 393.183 162.311, 427.500 145.523 C 464.158 127.589, 487.868 105.465, 496.427 81.208 L 497.806 77.297 490.880 77.095 C 479.400 76.760, 468.209 80.814, 423.500 101.505 C 366.156 128.042, 330.955 139.688, 290 145.672 C 272.687 148.201, 239.313 148.201, 222 145.672 C 179.856 139.514, 146.523 128.325, 82.955 98.994 C 42.068 80.129, 32.550 76.762, 21.065 77.097 L 14.194 77.297 15.573 81.208" stroke="none" fill="#cc549e" fill-rule="evenodd"/><path d="M 16.023 48.781 C 12.893 51.315, 11.762 58.600, 12.985 68.355 C 13.534 72.734, 14.212 76.546, 14.492 76.825 C 14.771 77.105, 17.889 77.229, 21.421 77.101 C 32.351 76.704, 42.374 80.270, 82.955 98.994 C 146.523 128.325, 179.856 139.514, 222 145.672 C 239.313 148.201, 272.687 148.201, 290 145.672 C 330.955 139.688, 366.156 128.042, 423.500 101.505 C 467.851 80.980, 479.598 76.703, 490.525 77.099 C 494.086 77.228, 497.229 77.105, 497.508 76.825 C 498.798 75.535, 499.949 60.049, 499.095 55.477 C 497.972 49.468, 495.276 47, 489.832 47 C 480.859 47, 470.399 50.920, 428.500 69.984 C 391.161 86.973, 374.959 93.656, 354.826 100.373 C 284.682 123.775, 228.359 123.963, 159.089 101.025 C 138.459 94.194, 123.031 87.881, 87 71.528 C 49.200 54.371, 45.856 52.956, 35.198 49.608 C 25.400 46.530, 19.136 46.259, 16.023 48.781" stroke="none" fill="#dd8162" fill-rule="evenodd"/><path d="M 402 191.500 C 403.866 193.425, 405.617 195, 405.892 195 C 406.167 195, 404.866 193.425, 403 191.500 C 401.134 189.575, 399.383 188, 399.108 188 C 398.833 188, 400.134 189.575, 402 191.500 M 108.437 192.250 L 105.500 195.500 108.750 192.563 C 110.537 190.948, 112 189.485, 112 189.313 C 112 188.540, 111.175 189.221, 108.437 192.250 M 128.264 224.718 C 129.784 224.947, 132.034 224.941, 133.264 224.704 C 134.494 224.467, 133.250 224.279, 130.500 224.286 C 127.750 224.294, 126.744 224.488, 128.264 224.718 M 379.264 224.718 C 380.784 224.947, 383.034 224.941, 384.264 224.704 C 385.494 224.467, 384.250 224.279, 381.500 224.286 C 378.750 224.294, 377.744 224.488, 379.264 224.718 M 435.500 247 C 437.648 249.200, 439.631 251, 439.906 251 C 440.181 251, 438.648 249.200, 436.500 247 C 434.352 244.800, 432.369 243, 432.094 243 C 431.819 243, 433.352 244.800, 435.500 247 M 74.946 247.750 L 71.500 251.500 75.250 248.054 C 77.313 246.158, 79 244.471, 79 244.304 C 79 243.540, 78.154 244.260, 74.946 247.750 M 207.232 295 C 207.232 296.925, 207.438 297.712, 207.689 296.750 C 207.941 295.788, 207.941 294.212, 207.689 293.250 C 207.438 292.288, 207.232 293.075, 207.232 295 M 304.232 295 C 304.232 296.925, 304.438 297.712, 304.689 296.750 C 304.941 295.788, 304.941 294.212, 304.689 293.250 C 304.438 292.288, 304.232 293.075, 304.232 295 M 207.232 309 C 207.232 310.925, 207.438 311.712, 207.689 310.750 C 207.941 309.788, 207.941 308.212, 207.689 307.250 C 207.438 306.288, 207.232 307.075, 207.232 309 M 304.232 309 C 304.232 310.925, 304.438 311.712, 304.689 310.750 C 304.941 309.788, 304.941 308.212, 304.689 307.250 C 304.438 306.288, 304.232 307.075, 304.232 309 M 253.250 333.716 C 254.762 333.945, 257.238 333.945, 258.750 333.716 C 260.262 333.487, 259.025 333.300, 256 333.300 C 252.975 333.300, 251.738 333.487, 253.250 333.716 M 65.052 344.078 C 64.908 345.673, 70.512 357.798, 74.996 365.591 C 90.635 392.769, 115.745 414.998, 149.392 431.453 C 160.606 436.937, 182.833 445.201, 192.330 447.418 L 195.160 448.078 192.514 443.789 C 180.912 424.981, 180.198 403.623, 190.431 381.451 C 193.527 374.743, 193.586 374.394, 191.665 374.250 C 188.633 374.021, 172 368.780, 172 368.053 C 172 367.705, 168.219 369.272, 163.598 371.535 C 153.044 376.702, 142.742 379, 130.132 379 C 117.667 379, 107.528 376.511, 95.127 370.405 C 87.425 366.613, 84.203 364.251, 77.046 357.146 C 72.256 352.391, 67.610 347.375, 66.721 346 C 65.832 344.625, 65.081 343.760, 65.052 344.078 M 444.073 347.383 C 442.887 349.301, 438.301 354.272, 433.881 358.430 C 411.011 379.944, 376.412 385.249, 348.402 371.535 C 343.781 369.272, 340 367.705, 340 368.053 C 340 368.780, 323.367 374.021, 320.335 374.250 C 318.414 374.394, 318.473 374.743, 321.569 381.451 C 331.802 403.623, 331.088 424.981, 319.486 443.789 L 316.840 448.078 319.670 447.418 C 329.167 445.201, 351.394 436.937, 362.608 431.453 C 396.255 414.998, 421.365 392.769, 437.004 365.591 C 444.297 352.916, 450.454 337.057, 444.073 347.383 M 184.437 357.250 L 181.500 360.500 184.750 357.563 C 186.537 355.948, 188 354.485, 188 354.313 C 188 353.540, 187.175 354.221, 184.437 357.250 M 324 354.313 C 324 354.485, 325.462 355.948, 327.250 357.563 L 330.500 360.500 327.563 357.250 C 324.825 354.221, 324 353.540, 324 354.313 M 253.250 380.716 C 254.762 380.945, 257.238 380.945, 258.750 380.716 C 260.262 380.487, 259.025 380.300, 256 380.300 C 252.975 380.300, 251.738 380.487, 253.250 380.716 M 195.263 415 C 195.534 419.125, 196.535 424.750, 197.487 427.500 C 199.137 432.265, 207.817 446.516, 208.596 445.738 C 208.799 445.534, 208.523 443.825, 207.983 441.940 C 206.779 437.744, 206.749 429.787, 207.917 424.757 C 208.395 422.698, 208.410 421.247, 207.950 421.531 C 207.489 421.816, 204.787 419.225, 201.944 415.774 C 199.102 412.323, 196.324 409.050, 195.773 408.500 C 195.103 407.832, 194.934 409.987, 195.263 415 M 310.679 415.037 C 307.517 418.908, 304.544 421.836, 304.072 421.544 C 303.598 421.252, 303.603 422.691, 304.083 424.757 C 305.251 429.787, 305.221 437.744, 304.017 441.940 C 303.477 443.825, 303.201 445.534, 303.404 445.738 C 304.183 446.516, 312.863 432.265, 314.513 427.500 C 316.075 422.990, 317.868 408, 316.846 408 C 316.616 408, 313.841 411.167, 310.679 415.037 M 219.248 437.682 C 221.539 455.326, 242.512 468.554, 262.639 465.049 C 278.548 462.279, 291.232 450.719, 292.670 437.682 L 293.131 433.500 289.815 437.139 C 280.862 446.965, 269.610 452, 256.605 452 C 242.979 452, 233.012 447.934, 223.763 438.602 L 218.706 433.500 219.248 437.682" stroke="none" fill="#4f7939" fill-rule="evenodd"/></svg>