<svg xmlns="http://www.w3.org/2000/svg" width="48pt" height="48pt" viewBox="0 0 512 512" version="1.1"><path d="M 131.102 15.250 C 131.341 15.387, 133.779 17.525, 136.519 20 L 141.500 24.500 137.042 19.750 C 134.590 17.137, 132.152 15, 131.625 15 C 131.098 15, 130.863 15.113, 131.102 15.250 M 374.958 19.750 L 370.500 24.500 375.481 20 C 378.221 17.525, 380.659 15.387, 380.898 15.250 C 381.137 15.113, 380.902 15, 380.375 15 C 379.848 15, 377.410 17.137, 374.958 19.750 M 126.444 22.672 C 95.598 66.998, 83.396 129.227, 95.634 179.798 C 98.684 192.405, 101.739 200.658, 107.551 211.993 C 112.394 221.441, 112.772 223.115, 110.488 225.010 C 109.171 226.103, 109.449 226.859, 112.649 230.882 C 117.370 236.819, 127.205 247, 128.219 247 C 128.648 247, 129 240.963, 129 233.583 C 129 223.751, 129.334 220.050, 130.250 219.728 C 130.938 219.487, 130.163 219.281, 128.529 219.270 C 126.221 219.254, 124.394 217.999, 120.336 213.640 C 113.560 206.360, 108.784 197.683, 105.398 186.500 C 102.919 178.313, 102.673 176.055, 102.675 161.500 C 102.678 147.259, 102.975 144.400, 105.377 135.500 C 109.776 119.206, 121.808 96.849, 127.637 94.139 C 129.683 93.188, 129.804 92.273, 130.456 72.823 C 130.831 61.645, 130.994 44.477, 130.819 34.672 L 130.500 16.844 126.444 22.672 M 381 39.641 C 381 52.314, 381.297 69.546, 381.660 77.935 C 382.273 92.096, 382.470 93.259, 384.410 94.161 C 390.194 96.851, 402.242 119.274, 406.623 135.500 C 409.025 144.400, 409.322 147.259, 409.325 161.500 C 409.327 176.055, 409.081 178.313, 406.602 186.500 C 403.216 197.683, 398.440 206.360, 391.664 213.640 C 387.606 217.999, 385.779 219.254, 383.471 219.270 C 381.837 219.281, 381.063 219.487, 381.750 219.728 C 382.666 220.050, 383 223.751, 383 233.583 C 383 240.963, 383.352 247, 383.781 247 C 384.795 247, 394.630 236.819, 399.351 230.882 C 402.551 226.859, 402.829 226.103, 401.512 225.010 C 399.228 223.115, 399.606 221.441, 404.449 211.993 C 415.930 189.599, 420.991 166.903, 420.997 137.784 C 421.003 110.055, 415.240 82.605, 403.828 56 C 397.777 41.894, 387.731 24.338, 381.826 17.550 C 381.372 17.027, 381 26.968, 381 39.641 M 236.971 126.750 L 230.500 133.500 237.250 127.029 C 243.520 121.018, 244.457 120, 243.721 120 C 243.568 120, 240.530 123.037, 236.971 126.750 M 274 126.500 C 277.543 130.075, 280.667 133, 280.942 133 C 281.217 133, 278.543 130.075, 275 126.500 C 271.457 122.925, 268.333 120, 268.058 120 C 267.783 120, 270.457 122.925, 274 126.500 M 66.465 299.057 C 65.005 301.420, 64.652 327.539, 65.969 335.797 C 76.309 400.627, 142.714 452.216, 228.500 462.064 C 249.248 464.446, 281.075 463.282, 301.500 459.393 C 361.668 447.938, 411.486 415.083, 433.792 372.147 C 439.484 361.189, 444.228 347.102, 446.031 335.797 C 447.436 326.988, 446.940 300.540, 445.340 298.940 C 444.645 298.245, 439.385 303.279, 428.866 314.709 C 413.473 331.436, 391.599 351.488, 389.896 350.436 C 389.403 350.131, 389 350.538, 389 351.339 C 389 353.815, 384.273 361.274, 379.781 365.885 C 377.426 368.301, 372.575 371.670, 369 373.371 C 363.344 376.062, 361.331 376.481, 353.500 376.599 C 347.506 376.689, 343.164 377.305, 340.500 378.442 C 335.557 380.553, 315.558 386.359, 307.620 387.989 C 303.109 388.915, 301.569 388.921, 301.010 388.017 C 300.590 387.337, 300.019 388.461, 299.662 390.669 C 298.110 400.271, 289.382 407.019, 277.531 407.780 C 269.555 408.292, 265.072 407.217, 259.549 403.469 L 256 401.060 252.451 403.469 C 246.928 407.217, 242.445 408.292, 234.469 407.780 C 222.618 407.019, 213.890 400.271, 212.338 390.669 C 211.981 388.461, 211.410 387.337, 210.990 388.017 C 210.431 388.921, 208.891 388.915, 204.380 387.989 C 196.442 386.359, 176.443 380.553, 171.500 378.442 C 168.836 377.305, 164.494 376.689, 158.500 376.599 C 150.669 376.481, 148.656 376.062, 143 373.371 C 139.425 371.670, 134.574 368.301, 132.219 365.885 C 127.727 361.274, 123 353.815, 123 351.339 C 123 350.538, 122.603 350.127, 122.119 350.427 C 120.638 351.342, 100.151 333.079, 88.500 320.458 C 67.586 297.802, 67.370 297.592, 66.465 299.057 M 155.250 300.716 C 156.762 300.945, 159.238 300.945, 160.750 300.716 C 162.262 300.487, 161.025 300.300, 158 300.300 C 154.975 300.300, 153.738 300.487, 155.250 300.716 M 350.250 300.716 C 351.762 300.945, 354.238 300.945, 355.750 300.716 C 357.262 300.487, 356.025 300.300, 353 300.300 C 349.975 300.300, 348.738 300.487, 350.250 300.716 M 120.286 338.500 C 120.294 341.250, 120.488 342.256, 120.718 340.736 C 120.947 339.216, 120.941 336.966, 120.704 335.736 C 120.467 334.506, 120.279 335.750, 120.286 338.500 M 391.272 339 C 391.272 341.475, 391.467 342.488, 391.706 341.250 C 391.944 340.012, 391.944 337.988, 391.706 336.750 C 391.467 335.512, 391.272 336.525, 391.272 339 M 215 379.387 C 215 379.599, 216.326 379.968, 217.947 380.206 C 219.568 380.443, 220.667 380.270, 220.388 379.819 C 219.893 379.017, 215 378.625, 215 379.387 M 291.612 379.819 C 291.333 380.270, 292.432 380.443, 294.053 380.206 C 295.674 379.968, 297 379.599, 297 379.387 C 297 378.625, 292.107 379.017, 291.612 379.819 M 225.705 392.332 C 227.741 395.626, 238.271 396.930, 243.500 394.536 L 246.500 393.162 243.500 393.010 C 241.850 392.926, 237.050 392.543, 232.833 392.159 C 228.527 391.766, 225.403 391.842, 225.705 392.332 M 285 391.558 C 284.175 391.737, 279.450 392.198, 274.500 392.583 C 265.953 393.247, 265.651 393.348, 268.500 394.596 C 274.004 397.006, 284.290 395.576, 286.437 392.102 C 286.812 391.496, 286.979 391.052, 286.809 391.116 C 286.639 391.180, 285.825 391.379, 285 391.558 M 252.250 475.728 C 254.313 475.944, 257.688 475.944, 259.750 475.728 C 261.813 475.513, 260.125 475.336, 256 475.336 C 251.875 475.336, 250.188 475.513, 252.250 475.728" stroke="none" fill="#c4833d" fill-rule="evenodd"/><path d="M 242.425 122.010 C 232.533 131.837, 228.729 135, 226.804 135 C 225.403 135, 219.645 132.955, 214.007 130.455 C 208.369 127.955, 203.669 126.043, 203.563 126.205 C 203.456 126.367, 198.064 138.425, 191.580 153 C 179.755 179.583, 176.662 184.662, 173.008 183.502 C 171.575 183.048, 170.885 183.888, 169.606 187.644 C 167.602 193.526, 167.568 193.281, 170.250 192.372 C 171.488 191.953, 176.920 190.440, 182.321 189.010 L 192.143 186.410 196.175 177.455 C 198.393 172.530, 200.355 168.344, 200.535 168.153 C 200.714 167.962, 206.577 170.372, 213.563 173.509 L 226.264 179.211 241.132 164.368 L 256 149.525 270.868 164.368 L 285.736 179.211 298.437 173.509 C 305.423 170.372, 311.286 167.962, 311.465 168.153 C 311.645 168.344, 313.607 172.530, 315.825 177.455 L 319.857 186.410 329.679 189.010 C 335.080 190.440, 340.512 191.953, 341.750 192.372 C 344.426 193.279, 344.391 193.505, 342.449 187.803 C 341.152 183.998, 340.479 183.250, 338.351 183.250 C 336.951 183.250, 335.007 182.406, 334.031 181.375 C 333.054 180.344, 326.940 167.575, 320.443 153 C 313.947 138.425, 308.544 126.367, 308.437 126.205 C 308.331 126.043, 303.631 127.955, 297.993 130.455 C 292.355 132.955, 286.600 135, 285.204 135 C 283.290 135, 279.438 131.804, 269.537 122 C 262.316 114.850, 256.204 109.004, 255.954 109.010 C 255.704 109.015, 249.616 114.865, 242.425 122.010 M 93.947 234.185 L 87.755 243.500 95.847 235.553 C 100.298 231.183, 103.841 227.568, 103.720 227.520 C 103.599 227.473, 102.744 226.857, 101.819 226.152 C 100.334 225.019, 99.420 225.952, 93.947 234.185 M 409.800 226.355 C 408.273 227.516, 408.920 228.452, 416.173 235.573 L 424.245 243.500 418.097 234.250 C 414.715 229.162, 411.848 225.014, 411.724 225.032 C 411.601 225.049, 410.735 225.645, 409.800 226.355 M 244.500 316.465 C 232.688 318.962, 224.091 323.245, 217.655 329.839 C 212.557 335.063, 213.024 336.973, 220.004 339.450 C 224.995 341.222, 228.304 341.401, 256 341.401 C 283.696 341.401, 287.005 341.222, 291.996 339.450 C 295.313 338.273, 297.616 336.834, 297.806 335.819 C 298.224 333.582, 291.931 326.736, 286.568 323.593 C 273.825 316.125, 258.438 313.518, 244.500 316.465 M 93.500 414 C 97.320 417.850, 100.671 421, 100.946 421 C 101.221 421, 98.320 417.850, 94.500 414 C 90.680 410.150, 87.329 407, 87.054 407 C 86.779 407, 89.680 410.150, 93.500 414 M 417.473 414.250 L 410.500 421.500 417.750 414.527 C 424.484 408.050, 425.457 407, 424.723 407 C 424.571 407, 421.308 410.262, 417.473 414.250 M 94 438.500 C 95.866 440.425, 97.617 442, 97.892 442 C 98.167 442, 96.866 440.425, 95 438.500 C 93.134 436.575, 91.383 435, 91.108 435 C 90.833 435, 92.134 436.575, 94 438.500 M 416.946 438.750 L 413.500 442.500 417.250 439.054 C 419.313 437.158, 421 435.471, 421 435.304 C 421 434.540, 420.154 435.260, 416.946 438.750" stroke="none" fill="#e5b076" fill-rule="evenodd"/><path d="M 242.425 122.010 C 232.533 131.837, 228.729 135, 226.804 135 C 225.403 135, 219.645 132.955, 214.007 130.455 C 208.369 127.955, 203.669 126.043, 203.563 126.205 C 203.456 126.367, 198.064 138.425, 191.580 153 C 179.755 179.583, 176.662 184.662, 173.008 183.502 C 171.575 183.048, 170.885 183.888, 169.606 187.644 C 167.602 193.526, 167.568 193.281, 170.250 192.372 C 171.488 191.953, 176.920 190.440, 182.321 189.010 L 192.143 186.410 196.175 177.455 C 198.393 172.530, 200.355 168.344, 200.535 168.153 C 200.714 167.962, 206.577 170.372, 213.563 173.509 L 226.264 179.211 241.132 164.368 L 256 149.525 270.868 164.368 L 285.736 179.211 298.437 173.509 C 305.423 170.372, 311.286 167.962, 311.465 168.153 C 311.645 168.344, 313.607 172.530, 315.825 177.455 L 319.857 186.410 329.679 189.010 C 335.080 190.440, 340.512 191.953, 341.750 192.372 C 344.426 193.279, 344.391 193.505, 342.449 187.803 C 341.152 183.998, 340.479 183.250, 338.351 183.250 C 336.951 183.250, 335.007 182.406, 334.031 181.375 C 333.054 180.344, 326.940 167.575, 320.443 153 C 313.947 138.425, 308.544 126.367, 308.437 126.205 C 308.331 126.043, 303.631 127.955, 297.993 130.455 C 292.355 132.955, 286.600 135, 285.204 135 C 283.290 135, 279.438 131.804, 269.537 122 C 262.316 114.850, 256.204 109.004, 255.954 109.010 C 255.704 109.015, 249.616 114.865, 242.425 122.010 M 93.947 234.185 L 87.755 243.500 95.847 235.553 C 100.298 231.183, 103.841 227.568, 103.720 227.520 C 103.599 227.473, 102.744 226.857, 101.819 226.152 C 100.334 225.019, 99.420 225.952, 93.947 234.185 M 409.800 226.355 C 408.273 227.516, 408.920 228.452, 416.173 235.573 L 424.245 243.500 418.097 234.250 C 414.715 229.162, 411.848 225.014, 411.724 225.032 C 411.601 225.049, 410.735 225.645, 409.800 226.355 M 244.500 316.465 C 232.688 318.962, 224.091 323.245, 217.655 329.839 C 212.557 335.063, 213.024 336.973, 220.004 339.450 C 224.995 341.222, 228.304 341.401, 256 341.401 C 283.696 341.401, 287.005 341.222, 291.996 339.450 C 295.313 338.273, 297.616 336.834, 297.806 335.819 C 298.224 333.582, 291.931 326.736, 286.568 323.593 C 273.825 316.125, 258.438 313.518, 244.500 316.465 M 93.500 414 C 97.320 417.850, 100.671 421, 100.946 421 C 101.221 421, 98.320 417.850, 94.500 414 C 90.680 410.150, 87.329 407, 87.054 407 C 86.779 407, 89.680 410.150, 93.500 414 M 417.473 414.250 L 410.500 421.500 417.750 414.527 C 424.484 408.050, 425.457 407, 424.723 407 C 424.571 407, 421.308 410.262, 417.473 414.250 M 94 438.500 C 95.866 440.425, 97.617 442, 97.892 442 C 98.167 442, 96.866 440.425, 95 438.500 C 93.134 436.575, 91.383 435, 91.108 435 C 90.833 435, 92.134 436.575, 94 438.500 M 416.946 438.750 L 413.500 442.500 417.250 439.054 C 419.313 437.158, 421 435.471, 421 435.304 C 421 434.540, 420.154 435.260, 416.946 438.750" stroke="none" fill="#e5b076" fill-rule="evenodd"/><path d="M 57.007 364.750 C 57.025 387.077, 68.711 411.800, 89.176 432.805 C 108.580 452.722, 154.975 471.867, 201 478.949 C 242.788 485.380, 289.921 484.080, 329.346 475.410 C 370.013 466.466, 406.016 450.057, 422.824 432.805 C 443.648 411.431, 455.507 385.995, 454.789 364.244 L 454.500 355.500 452.120 362 C 433.385 413.171, 379.955 454.668, 313.805 469.424 C 291.650 474.367, 282.236 475.328, 256 475.328 C 229.764 475.328, 220.350 474.367, 198.195 469.424 C 132.202 454.703, 78.360 412.947, 59.996 362.250 C 58.751 358.813, 57.567 356, 57.366 356 C 57.165 356, 57.003 359.938, 57.007 364.750" stroke="none" fill="#efc99a" fill-rule="evenodd"/><path d="M 98 441.584 C 98 441.800, 101.487 444.756, 105.750 448.153 C 147.310 481.279, 199.882 499.108, 256 499.108 C 312.118 499.108, 364.690 481.279, 406.250 448.153 C 410.512 444.756, 414 441.800, 414 441.584 C 414 441.368, 410.288 443.437, 405.750 446.181 C 394.222 453.153, 386.335 457.028, 372.821 462.362 C 338.277 475.995, 298.776 482.960, 256 482.960 C 198.212 482.960, 145.770 470.081, 106.250 446.181 C 101.713 443.437, 98 441.368, 98 441.584" stroke="none" fill="#ffecd2" fill-rule="evenodd"/><path d="M 138 324 C 135.445 326.555, 135.466 329.052, 138.073 332.365 C 141.852 337.169, 149 334.705, 149 328.598 C 149 322.574, 142.249 319.751, 138 324 M 333.313 322.786 C 332.659 323.201, 331.704 324.657, 331.190 326.020 C 328.408 333.399, 338.230 338.157, 342.570 331.533 C 344.288 328.911, 343.849 325.992, 341.363 323.506 C 339.772 321.915, 335.310 321.516, 333.313 322.786" stroke="none" fill="#ffffff" fill-rule="evenodd"/><path d="M 123.249 6.074 C 105.544 28.717, 90.445 60.937, 84.059 89.704 C 79.989 108.036, 78.797 119.002, 78.755 138.500 C 78.698 164.654, 82.089 183.850, 90.411 204.488 L 93.939 213.238 90.615 217.369 C 81.683 228.471, 70.769 247.280, 64.720 262 C 56.520 281.950, 52.934 298.192, 52.412 317.743 C 52.076 330.317, 51.727 332.708, 49.438 338.148 C 40.635 359.061, 42.667 383.388, 55.263 407.912 C 70.372 437.327, 98.424 463.696, 135 482.864 C 194.061 513.816, 265.926 520.579, 331.324 501.340 C 388.015 484.662, 435.475 449.306, 456.737 407.912 C 469.333 383.388, 471.365 359.061, 462.562 338.148 C 460.273 332.708, 459.924 330.317, 459.588 317.743 C 459.066 298.192, 455.480 281.950, 447.280 262 C 441.231 247.280, 430.317 228.471, 421.385 217.369 L 418.061 213.238 421.589 204.488 C 429.911 183.850, 433.302 164.654, 433.245 138.500 C 433.203 119.002, 432.011 108.036, 427.941 89.704 C 421.555 60.937, 406.456 28.717, 388.751 6.074 C 384.929 1.185, 383.448 -0, 381.165 -0 C 373.542 0, 356.767 19.472, 346.275 40.500 C 334.143 64.816, 328.107 100.327, 330.792 131.602 C 331.441 139.170, 331.815 145.518, 331.623 145.710 C 331.431 145.902, 328.230 139.183, 324.510 130.779 C 317.681 115.355, 314.954 111.013, 312.076 110.984 C 311.209 110.976, 305.184 113.304, 298.686 116.157 L 286.871 121.346 272.673 107.173 C 262.066 96.584, 257.849 93, 256 93 C 254.151 93, 249.934 96.584, 239.327 107.173 L 225.129 121.346 213.314 116.157 C 206.816 113.304, 200.791 110.976, 199.924 110.984 C 197.058 111.013, 194.335 115.334, 187.467 130.754 C 183.731 139.143, 180.528 145.862, 180.351 145.684 C 180.173 145.506, 180.559 139.170, 181.208 131.602 C 183.860 100.704, 177.963 65.472, 166.042 41 C 156.038 20.464, 138.466 0, 130.835 0 C 128.552 0, 127.071 1.185, 123.249 6.074 M 126.359 22.783 C 118.111 35.162, 113.422 43.722, 108.164 56 C 96.663 82.856, 90.997 109.907, 91.003 137.936 C 91.009 166.894, 96.092 189.642, 107.551 211.993 C 112.529 221.705, 112.780 222.984, 110.171 225.345 C 107.865 227.432, 104.176 227.470, 101.922 225.429 C 100.308 223.969, 99.738 224.545, 93.770 233.679 C 78.994 256.291, 71.331 274.410, 66.921 297.161 C 64.569 309.296, 64.387 327.547, 66.507 338.722 C 78.617 402.564, 144.026 452.366, 228.500 462.064 C 241.354 463.540, 270.646 463.540, 283.500 462.064 C 331.889 456.509, 375.422 437.531, 405.374 408.934 C 447.574 368.643, 457.935 319.628, 435.637 265.762 C 431.215 255.079, 426.326 246.069, 418.230 233.679 C 412.262 224.545, 411.692 223.969, 410.078 225.429 C 407.746 227.540, 403.686 227.415, 401.655 225.171 C 399.298 222.566, 399.487 221.673, 404.449 211.993 C 415.930 189.599, 420.991 166.903, 420.997 137.784 C 421.006 94.481, 405.901 48.934, 380.302 15.073 C 379.670 14.237, 373.658 20.610, 368.291 27.803 C 353.565 47.542, 344.840 73.951, 343.188 103.786 C 341.487 134.513, 345.923 162.864, 356.746 190.424 C 360.503 199.992, 360.972 203.124, 359.003 205.497 C 357.398 207.431, 352.577 207.434, 350.645 205.502 C 349.168 204.026, 343.806 191.060, 342.469 185.734 C 341.934 183.600, 341.191 183, 339.083 183 C 337.597 183, 335.669 182.438, 334.798 181.750 C 333.926 181.063, 327.789 168.358, 321.160 153.518 C 314.531 138.678, 308.647 126.382, 308.084 126.195 C 307.521 126.007, 302.510 127.911, 296.948 130.427 C 291.386 132.942, 286.121 135, 285.248 135 C 284.375 135, 277.437 128.833, 269.830 121.296 L 256 107.592 242.170 121.296 C 234.563 128.833, 227.625 135, 226.752 135 C 225.879 135, 220.614 132.942, 215.052 130.427 C 209.490 127.911, 204.480 126.007, 203.918 126.194 C 203.356 126.381, 197.575 138.391, 191.072 152.882 C 184.568 167.374, 178.521 180.078, 177.634 181.115 C 176.741 182.158, 174.723 183, 173.118 183 C 170.791 183, 170.081 183.541, 169.531 185.734 C 168.194 191.060, 162.832 204.026, 161.355 205.502 C 159.423 207.434, 154.602 207.431, 152.997 205.497 C 151.030 203.127, 151.496 199.998, 155.239 190.424 C 171.309 149.323, 173.690 100.288, 161.451 62.500 C 158.199 52.461, 150.497 36.974, 144.958 29.337 C 140.675 23.431, 133.037 14.973, 132.042 15.033 C 131.744 15.051, 129.186 18.538, 126.359 22.783 M 127.500 94.140 C 121.730 96.982, 109.708 119.459, 105.377 135.500 C 102.975 144.400, 102.678 147.259, 102.675 161.500 C 102.673 176.055, 102.919 178.313, 105.398 186.500 C 108.784 197.683, 113.560 206.360, 120.336 213.640 C 126.946 220.741, 129.847 221.089, 134.812 215.375 C 142.874 206.099, 150.149 190.661, 154.193 174.253 C 157.260 161.807, 157.250 139.920, 154.171 128.500 C 151.162 117.336, 145.679 106.981, 139.099 100.031 C 133.174 93.774, 130.747 92.541, 127.500 94.140 M 379.412 93.971 C 375.881 95.399, 367.356 105.835, 363.576 113.357 C 357.549 125.348, 355.674 134.267, 355.661 151 C 355.652 162.508, 356.095 167.306, 357.807 174.253 C 361.851 190.661, 369.126 206.099, 377.188 215.375 C 382.153 221.089, 385.054 220.741, 391.664 213.640 C 398.440 206.360, 403.216 197.683, 406.602 186.500 C 409.081 178.313, 409.327 176.055, 409.325 161.500 C 409.322 147.259, 409.025 144.400, 406.623 135.500 C 402.164 118.983, 390.184 96.843, 384.203 94.066 C 382.940 93.480, 381.815 93.029, 381.703 93.063 C 381.591 93.098, 380.560 93.507, 379.412 93.971 M 144.729 303.421 C 113.987 316.063, 112.713 358.945, 142.656 373.175 C 168.786 385.592, 199.102 364.611, 196.685 335.783 C 195.385 320.277, 184.698 306.848, 170.143 302.431 C 162.748 300.187, 151.531 300.623, 144.729 303.421 M 340.423 302.774 C 311.841 312.916, 306.266 351.393, 330.756 369.496 C 351.944 385.158, 382.761 374.356, 389.929 348.754 C 391.941 341.567, 390.947 329.747, 387.741 322.744 C 384.409 315.467, 376.591 307.632, 369.236 304.199 C 361.700 300.682, 348.201 300.014, 340.423 302.774 M 138.736 322.250 C 132.204 327.210, 137.450 337.482, 145.146 334.799 C 150.347 332.986, 151.672 326.919, 147.686 323.174 C 145.106 320.751, 141.236 320.351, 138.736 322.250 M 332.174 323.314 C 327.859 327.908, 330.736 335.333, 336.831 335.333 C 341.084 335.333, 344 332.506, 344 328.384 C 344 321.835, 336.560 318.646, 332.174 323.314 M 56.464 360.489 C 55.308 371.286, 58.066 384.740, 64.130 397.887 C 84.937 442.996, 141.896 481.941, 206 494.889 C 224.033 498.532, 234.279 499.470, 256 499.470 C 277.721 499.470, 287.967 498.532, 306 494.889 C 370.104 481.941, 427.063 442.996, 447.870 397.887 C 454.189 384.189, 457.179 368.033, 455.252 358 L 454.388 353.500 452.551 358.940 C 432.451 418.446, 367.384 463.490, 287 473.545 C 272.139 475.404, 239.861 475.404, 225 473.545 C 144.805 463.513, 79.137 418.122, 59.563 359.190 C 58.615 356.335, 57.686 354, 57.499 354 C 57.312 354, 56.847 356.920, 56.464 360.489 M 237.762 362.073 C 235.069 363.642, 233.884 366.566, 234.880 369.185 C 235.454 370.693, 238.243 372.700, 242.881 374.943 L 250 378.386 249.985 382.943 C 249.956 391.928, 244.803 396.428, 235.342 395.731 C 228.068 395.195, 225.377 393.104, 223.456 386.495 C 222.219 382.241, 221.329 380.870, 219.509 380.413 C 213.390 378.877, 210.471 382.665, 212.104 390.021 C 214.486 400.751, 222.359 407.003, 234.469 407.780 C 242.445 408.292, 246.928 407.217, 252.451 403.469 L 256 401.060 259.549 403.469 C 265.072 407.217, 269.555 408.292, 277.531 407.780 C 289.641 407.003, 297.514 400.751, 299.896 390.021 C 301.529 382.665, 298.610 378.877, 292.491 380.413 C 290.671 380.870, 289.781 382.241, 288.544 386.495 C 286.623 393.104, 283.932 395.195, 276.658 395.731 C 267.197 396.428, 262.044 391.928, 262.015 382.943 L 262 378.386 269.119 374.943 C 276.673 371.290, 278.871 368.496, 276.977 364.957 C 276.415 363.906, 275.094 362.586, 274.043 362.023 C 271.553 360.690, 240.061 360.734, 237.762 362.073" stroke="none" fill="#37353a" fill-rule="evenodd"/><path d="M 131 39.341 C 131 52.179, 130.705 69.504, 130.344 77.841 C 129.781 90.841, 129.898 93, 131.165 93 C 131.977 93, 134.761 95.030, 137.350 97.511 C 151.169 110.751, 157.783 130.679, 156.728 155.893 C 156.149 169.708, 154.063 179.319, 148.781 192.500 C 144.976 201.997, 134.761 217.696, 131.388 219.233 C 129.045 220.301, 129 220.570, 129 233.661 C 129 240.997, 128.621 247, 128.159 247 C 127.116 247, 116.405 235.827, 112.600 230.770 C 108.348 225.120, 105.667 225.894, 95.885 235.595 C 84.342 247.043, 75.147 265.140, 69.436 287.652 L 67.013 297.205 82.325 313.853 C 96.083 328.810, 111.621 343.658, 119.317 349.202 L 122.134 351.232 121.317 347.366 C 118.667 334.826, 122.025 322.327, 130.505 313.168 C 139.997 302.916, 151.634 298.650, 164.358 300.758 C 188.022 304.679, 202.288 327.298, 195.602 350.296 C 192.527 360.875, 181.238 372.439, 171.310 375.180 C 167.038 376.360, 167.667 377.078, 175.500 379.963 C 181.857 382.304, 207.079 389, 209.543 389 C 210.495 389, 211 387.961, 211 386 C 211 382.374, 214.098 379, 217.427 379 C 220.264 379, 224 383.231, 224 386.444 C 224 390.833, 225.918 391.754, 236.500 392.448 C 248.046 393.205, 248.641 392.824, 249.686 384.004 L 250.260 379.160 243.880 375.968 C 240.371 374.212, 236.712 372.081, 235.750 371.233 C 233.584 369.323, 233.507 366.149, 235.557 363.223 C 237.072 361.059, 237.617 361, 256 361 C 274.383 361, 274.928 361.059, 276.443 363.223 C 278.493 366.149, 278.416 369.323, 276.250 371.233 C 275.288 372.081, 271.629 374.212, 268.120 375.968 L 261.740 379.160 262.314 384.004 C 263.359 392.824, 263.954 393.205, 275.500 392.448 C 286.082 391.754, 288 390.833, 288 386.444 C 288 383.231, 291.736 379, 294.573 379 C 297.902 379, 301 382.374, 301 386 C 301 387.961, 301.505 389, 302.457 389 C 304.921 389, 330.143 382.304, 336.500 379.963 C 344.333 377.078, 344.962 376.360, 340.690 375.180 C 334.790 373.551, 326.215 367.147, 321.940 361.176 C 310.677 345.448, 312.939 323.528, 327.179 310.403 C 342.318 296.449, 365.643 297.012, 380.316 311.684 C 389.035 320.403, 393.356 333.625, 391.121 344.749 C 390.505 347.821, 390.153 350.486, 390.340 350.673 C 390.730 351.064, 404.395 339.692, 410.851 333.603 C 413.244 331.347, 421.903 322.229, 430.092 313.342 L 444.982 297.184 442.561 287.641 C 436.853 265.141, 427.656 247.041, 416.115 235.595 C 406.333 225.894, 403.652 225.120, 399.400 230.770 C 395.595 235.827, 384.884 247, 383.841 247 C 383.379 247, 383 240.997, 383 233.661 C 383 220.570, 382.955 220.301, 380.612 219.233 C 377.239 217.696, 367.024 201.997, 363.219 192.500 C 357.937 179.319, 355.851 169.708, 355.272 155.893 C 354.217 130.679, 360.831 110.751, 374.650 97.511 C 377.239 95.030, 379.917 93, 380.601 93 C 381.579 93, 381.725 84.865, 381.287 54.750 C 380.982 33.712, 380.559 16.304, 380.347 16.065 C 378.966 14.501, 366.419 30.064, 360.245 41 C 339.611 77.547, 337.474 135.665, 354.988 184 C 361.590 202.221, 361.457 201.701, 360.199 204.463 C 358.731 207.683, 354.721 208.703, 351.590 206.651 C 350.232 205.761, 348.195 202.503, 346.885 199.123 L 344.574 193.165 337.537 191.120 C 333.667 189.996, 328.112 188.490, 325.193 187.774 L 319.886 186.473 315.839 177.486 C 313.613 172.544, 311.645 168.344, 311.465 168.153 C 311.286 167.962, 305.423 170.372, 298.437 173.509 L 285.736 179.211 270.868 164.368 L 256 149.525 241.132 164.368 L 226.264 179.211 213.563 173.509 C 206.577 170.372, 200.714 167.962, 200.535 168.153 C 200.355 168.344, 198.387 172.544, 196.161 177.486 L 192.114 186.473 186.807 187.774 C 183.888 188.490, 178.333 189.996, 174.463 191.120 L 167.426 193.165 165.115 199.123 C 163.805 202.503, 161.768 205.761, 160.410 206.651 C 157.279 208.703, 153.269 207.683, 151.801 204.463 C 150.543 201.701, 150.410 202.221, 157.012 184 C 178.583 124.469, 170.150 55.255, 137.122 20.750 C 134.621 18.137, 132.221 16, 131.788 16 C 131.354 16, 131 26.503, 131 39.341 M 249.469 114.250 L 243.500 120.500 249.750 114.531 L 256 108.563 262.250 114.531 L 268.500 120.500 262.531 114.250 C 259.249 110.813, 256.309 108, 256 108 C 255.691 108, 252.751 110.813, 249.469 114.250 M 244.500 316.465 C 232.688 318.962, 224.091 323.245, 217.655 329.839 C 212.557 335.063, 213.024 336.973, 220.004 339.450 C 224.995 341.222, 228.304 341.401, 256 341.401 C 283.696 341.401, 287.005 341.222, 291.996 339.450 C 295.313 338.273, 297.616 336.834, 297.806 335.819 C 298.224 333.582, 291.931 326.736, 286.568 323.593 C 273.825 316.125, 258.438 313.518, 244.500 316.465" stroke="none" fill="#ce914c" fill-rule="evenodd"/></svg>