<?xml version="1.0" standalone="no"?>
<!DOCTYPE svg PUBLIC "-//W3C//DTD SVG 20010904//EN"
 "http://www.w3.org/TR/2001/REC-SVG-20010904/DTD/svg10.dtd">
<svg version="1.0" xmlns="http://www.w3.org/2000/svg"
 width="800.000000pt" height="294.000000pt" viewBox="0 0 800.000000 294.000000"
 preserveAspectRatio="xMidYMid meet">

<g transform="translate(0.000000,294.000000) scale(0.100000,-0.100000)"
fill="#000000" stroke="none">
<path d="M4370 2900 c-47 -24 -92 -71 -325 -340 -148 -171 -271 -314 -273
-318 -1 -4 18 -32 43 -61 l46 -54 -51 -29 c-28 -16 -56 -26 -63 -21 -7 4 -107
92 -224 195 -116 103 -217 188 -224 188 -25 0 -136 -70 -147 -92 -9 -20 -11
-16 -11 30 -1 28 -3 52 -6 52 -2 0 -167 -52 -367 -116 -229 -73 -387 -129
-427 -151 l-63 -35 6 -102 c3 -55 9 -142 12 -192 l6 -92 52 14 c75 20 76 19
76 -28 l0 -43 -88 -1 c-125 -2 -250 -40 -342 -104 l-25 -18 0 132 c0 150 -12
197 -75 294 -59 92 -106 138 -204 203 -152 100 -313 136 -563 126 -223 -8
-445 -66 -682 -178 -149 -70 -337 -189 -398 -251 l-53 -53 171 -285 c94 -157
174 -292 179 -300 7 -12 18 -10 75 13 37 15 68 27 70 25 1 -2 129 -293 285
-648 156 -355 285 -647 287 -649 2 -3 126 35 275 83 224 73 283 96 338 132
l66 45 -52 202 c-30 111 -52 206 -51 211 2 4 14 -9 28 -30 169 -256 515 -298
795 -99 73 53 68 58 79 -76 6 -65 9 -76 23 -73 9 2 125 19 257 39 223 33 246
38 308 71 l67 35 0 164 0 163 476 -234 475 -235 65 36 64 36 0 222 0 223 63
13 c34 7 104 32 155 56 73 35 92 40 88 27 -9 -31 -38 -223 -35 -226 2 -2 134
-24 293 -49 l289 -45 54 30 c30 17 55 29 57 27 2 -2 18 -32 36 -66 l33 -63 53
29 53 28 5 -36 c3 -20 8 -59 11 -86 l6 -50 332 -59 332 -59 60 33 c33 19 61
35 63 36 2 1 -2 37 -8 80 -13 85 -9 94 43 94 15 0 53 9 84 20 31 11 58 19 59
17 1 -1 -4 -51 -11 -112 -7 -60 -11 -111 -10 -112 2 -3 411 -63 426 -63 5 0
10 -28 10 -62 3 -127 -14 -113 224 -189 116 -37 219 -68 230 -68 11 0 47 14
79 32 l60 32 293 880 c161 484 293 888 293 897 0 11 -11 20 -27 25 -16 3 -152
37 -303 74 l-275 67 -48 -25 c-27 -13 -50 -23 -52 -21 -2 2 -7 19 -12 38 l-9
35 -363 80 -363 79 -66 -34 -65 -35 2 -187 2 -188 -48 0 c-74 0 -169 -27 -252
-70 -41 -22 -78 -36 -82 -32 -6 6 -109 642 -109 671 0 8 -71 11 -241 11 l-242
0 -72 -40 -72 -40 -193 0 -192 0 -63 -36 c-66 -36 -69 -40 -79 -109 -4 -22 -9
-52 -12 -67 l-5 -28 -52 39 c-100 74 -250 131 -351 131 -39 1 -40 1 -21 16 11
8 107 61 212 117 106 56 193 106 193 110 0 17 -291 437 -303 437 -7 -1 -37
-14 -67 -30z m134 -269 c42 -57 74 -106 72 -110 -3 -3 -104 -55 -226 -116
l-221 -110 -18 24 -19 24 166 199 c91 109 166 197 168 196 1 -2 36 -50 78
-107z m1324 -423 c6 -35 30 -184 52 -333 l42 -270 -54 -80 c-30 -44 -64 -111
-77 -150 -29 -87 -38 -222 -21 -296 31 -134 117 -255 228 -319 54 -32 60 -39
65 -75 3 -22 5 -41 3 -42 -4 -4 -351 50 -358 56 -6 5 -97 579 -99 623 0 7 -30
-61 -65 -152 -36 -91 -69 -168 -72 -172 -4 -3 -52 91 -107 209 -116 251 -97
260 -149 -69 -18 -115 -36 -211 -40 -215 -6 -7 -326 43 -335 52 -2 3 6 67 18
142 l23 138 76 78 77 78 -55 49 -55 48 54 319 c29 175 55 328 58 341 5 22 7
22 179 22 96 0 174 -2 174 -4 0 -10 81 -440 83 -443 2 -1 22 107 46 240 23
133 45 252 48 265 5 21 9 22 128 22 l123 0 10 -62z m-2818 -178 c7 -121 16
-220 19 -220 3 1 76 100 161 220 85 121 158 220 163 220 8 0 317 -292 317
-300 -1 -3 -99 -108 -219 -235 -121 -126 -217 -233 -215 -236 2 -3 94 -41 205
-85 l201 -78 39 -57 c53 -78 129 -143 224 -189 79 -39 177 -70 222 -70 23 0
23 0 23 -150 0 -94 -4 -150 -10 -150 -6 0 -244 117 -530 260 -286 143 -522
260 -525 260 -3 0 -5 -124 -5 -275 0 -151 -2 -275 -4 -275 -1 0 -63 -9 -136
-20 -73 -12 -135 -18 -138 -15 -3 2 -9 55 -15 116 -9 109 -9 112 17 165 61
125 80 277 51 402 -18 75 -44 129 -97 200 l-39 53 -20 226 c-10 125 -21 228
-23 230 -2 2 -29 -2 -61 -11 -66 -17 -68 -15 -63 60 l3 48 205 62 c113 34 212
63 221 63 14 1 18 -28 29 -219z m-1639 156 c203 -33 358 -138 433 -296 60
-126 45 -294 -40 -447 -70 -127 -179 -246 -307 -337 -53 -37 -58 -43 -53 -71
3 -16 42 -169 86 -339 44 -170 80 -314 80 -320 0 -14 -281 -109 -291 -98 -4 4
-141 306 -304 672 -164 366 -299 666 -300 668 -2 2 -35 -13 -75 -33 -40 -20
-76 -33 -80 -28 -14 16 -210 352 -210 360 0 16 218 128 350 178 240 93 497
126 711 91z m3103 -96 c68 -22 162 -79 210 -129 l30 -31 -21 -22 c-11 -13
-111 -120 -222 -238 -110 -118 -196 -217 -190 -219 19 -6 133 20 174 41 22 11
64 41 93 65 l53 45 42 -35 c23 -20 75 -66 116 -104 l74 -69 -69 -58 c-124
-103 -329 -186 -499 -201 -95 -8 -216 14 -302 57 -271 133 -334 497 -125 729
149 166 416 237 636 169z m2476 -45 l205 -41 27 -129 c15 -72 51 -240 80 -374
l52 -244 27 109 c15 60 50 206 79 324 28 118 56 219 61 224 8 9 359 -63 359
-73 0 -3 -115 -350 -254 -771 -242 -729 -254 -765 -276 -762 -12 2 -70 18
-129 36 l-106 32 -10 426 c-5 235 -13 429 -16 432 -3 3 -31 -139 -63 -316 -31
-177 -58 -324 -60 -325 -4 -4 -269 36 -274 42 -2 2 1 50 7 106 l11 102 65 68
c70 74 132 190 156 289 39 164 -7 354 -113 466 l-29 31 10 103 c16 146 18 137
-36 152 -44 12 -48 16 -51 48 -2 18 -1 48 3 66 5 31 8 33 38 27 18 -4 124 -25
237 -48z m-415 -360 c188 -52 294 -260 240 -470 -37 -140 -149 -280 -280 -347
-185 -95 -392 -73 -511 54 -183 196 -116 521 144 691 138 91 259 112 407 72z
m-2948 -212 c-3 -2 -136 47 -146 54 -3 2 27 32 65 67 l69 63 7 -90 c4 -50 6
-92 5 -94z m-1057 91 c83 -39 145 -101 184 -184 39 -83 48 -213 21 -306 -51
-177 -191 -327 -365 -393 -91 -34 -239 -35 -322 -2 -120 47 -214 167 -239 304
-43 234 139 509 393 593 61 20 89 24 168 21 82 -2 104 -7 160 -33z"/>
<path d="M1235 1764 c-22 -8 -43 -18 -47 -22 -4 -4 9 -64 30 -132 96 -316 117
-380 125 -380 15 0 121 86 161 130 55 61 76 113 76 193 0 110 -30 163 -115
203 -59 28 -165 32 -230 8z m152 -144 c36 -21 59 -83 49 -132 -7 -35 -1 -36
18 0 11 19 15 22 16 10 0 -17 -69 -103 -76 -95 -2 2 -17 48 -34 103 -17 54
-33 107 -36 117 -7 23 22 22 63 -3z"/>
<path d="M4125 1891 c-124 -56 -182 -183 -143 -314 6 -21 30 -59 52 -84 l41
-44 167 188 167 188 -34 31 c-61 55 -173 71 -250 35z m139 -103 c-120 -136
-179 -204 -181 -207 -6 -9 -16 9 -22 41 -11 49 3 107 33 137 23 23 34 26 91
25 46 -1 65 2 69 12 3 8 11 14 17 14 8 0 4 -9 -7 -22z"/>
<path d="M6282 1595 c-97 -30 -152 -103 -152 -200 0 -126 97 -219 230 -220
154 0 267 130 229 266 l-12 44 -11 -30 c-20 -53 -35 -72 -70 -89 -104 -49
-227 23 -213 125 6 46 27 73 77 100 l35 18 -35 0 c-19 0 -54 -6 -78 -14z"/>
<path d="M2237 1476 c-135 -49 -186 -191 -111 -313 62 -100 210 -135 319 -75
87 48 134 158 105 247 l-13 38 -12 -37 c-18 -51 -51 -84 -98 -97 -68 -18 -132
6 -167 64 -38 61 -16 133 52 169 l33 17 -35 0 c-19 0 -52 -6 -73 -13z"/>
<path d="M7527 282 c6 -4 13 -23 16 -42 l4 -35 1 37 c1 20 8 39 15 41 6 3 -1
6 -18 6 -17 0 -25 -3 -18 -7z"/>
<path d="M7591 248 c1 -39 2 -40 8 -13 l7 30 8 -29 c6 -23 9 -27 17 -15 5 7 9
19 9 24 0 6 -4 4 -9 -4 -7 -10 -11 -5 -16 18 -10 45 -25 38 -24 -11z"/>
<path d="M7646 282 c-2 -4 -1 -23 4 -42 l8 -35 1 43 c1 41 -3 50 -13 34z"/>
</g>
</svg>
